<mxfile host="app.diagrams.net" modified="2024-06-10T11:38:20.697Z" agent="Mozilla/5.0 (Macintosh; Intel Mac OS X 10_15_7) AppleWebKit/537.36 (KHTML, like Gecko) Chrome/125.0.0.0 Safari/537.36" etag="oCmNDB4J7udZAFzdGyhc" version="24.5.2" type="device">
  <diagram name="Trang-1" id="O0z1rr8ixHoRao7DW91e">
    <mxGraphModel dx="1122" dy="713" grid="1" gridSize="10" guides="1" tooltips="1" connect="1" arrows="1" fold="1" page="1" pageScale="1" pageWidth="827" pageHeight="1169" math="0" shadow="0">
      <root>
        <mxCell id="0" />
        <mxCell id="1" parent="0" />
        <mxCell id="vn-bMymaiI_IPDmEBEAD-4" value="Workers" style="rounded=0;whiteSpace=wrap;html=1;" vertex="1" parent="1">
          <mxGeometry x="200" y="240" width="130" height="40" as="geometry" />
        </mxCell>
        <mxCell id="vn-bMymaiI_IPDmEBEAD-5" value="Companies" style="rounded=0;whiteSpace=wrap;html=1;" vertex="1" parent="1">
          <mxGeometry x="454" y="470" width="120" height="60" as="geometry" />
        </mxCell>
        <mxCell id="vn-bMymaiI_IPDmEBEAD-6" value="Jobs" style="rounded=0;whiteSpace=wrap;html=1;" vertex="1" parent="1">
          <mxGeometry x="205" y="470" width="120" height="60" as="geometry" />
        </mxCell>
        <mxCell id="vn-bMymaiI_IPDmEBEAD-7" value="Worker_Id(PK)" style="ellipse;whiteSpace=wrap;html=1;" vertex="1" parent="1">
          <mxGeometry x="20" y="110" width="90" height="65" as="geometry" />
        </mxCell>
        <mxCell id="vn-bMymaiI_IPDmEBEAD-8" value="Education Level" style="ellipse;whiteSpace=wrap;html=1;" vertex="1" parent="1">
          <mxGeometry x="330" y="50" width="100" height="50" as="geometry" />
        </mxCell>
        <mxCell id="vn-bMymaiI_IPDmEBEAD-9" value="Skills" style="ellipse;whiteSpace=wrap;html=1;" vertex="1" parent="1">
          <mxGeometry x="400" y="130" width="90" height="40" as="geometry" />
        </mxCell>
        <mxCell id="vn-bMymaiI_IPDmEBEAD-11" value="Name" style="ellipse;whiteSpace=wrap;html=1;" vertex="1" parent="1">
          <mxGeometry x="120" y="70" width="90" height="40" as="geometry" />
        </mxCell>
        <mxCell id="vn-bMymaiI_IPDmEBEAD-12" value="Email&lt;span style=&quot;color: rgba(0, 0, 0, 0); font-family: monospace; font-size: 0px; text-align: start; text-wrap: nowrap;&quot;&gt;3CmxGraphModel%3E%3Croot%3E%3CmxCell%20id%3D%220%22%2F%3E%3CmxCell%20id%3D%221%22%20parent%3D%220%22%2F%3E%3CmxCell%20id%3D%222%22%20value%3D%22Name%22%20style%3D%22ellipse%3BwhiteSpace%3Dwrap%3Bhtml%3D1%3B%22%20vertex%3D%221%22%20parent%3D%221%22%3E%3CmxGeometry%20x%3D%22230%22%20y%3D%2260%22%20width%3D%2290%22%20height%3D%2240%22%20as%3D%22geometry%22%2F%3E%3C%2FmxCell%3E%3C%2Froot%3E%3C%2FmxGraphModel%3E&lt;/span&gt;" style="ellipse;whiteSpace=wrap;html=1;" vertex="1" parent="1">
          <mxGeometry x="220" y="40" width="90" height="40" as="geometry" />
        </mxCell>
        <mxCell id="vn-bMymaiI_IPDmEBEAD-15" value="" style="endArrow=none;html=1;rounded=0;entryX=0.5;entryY=0;entryDx=0;entryDy=0;" edge="1" parent="1" source="vn-bMymaiI_IPDmEBEAD-7" target="vn-bMymaiI_IPDmEBEAD-4">
          <mxGeometry width="50" height="50" relative="1" as="geometry">
            <mxPoint x="380" y="300" as="sourcePoint" />
            <mxPoint x="430" y="250" as="targetPoint" />
          </mxGeometry>
        </mxCell>
        <mxCell id="vn-bMymaiI_IPDmEBEAD-16" value="" style="endArrow=none;html=1;rounded=0;exitX=0.967;exitY=0.775;exitDx=0;exitDy=0;exitPerimeter=0;entryX=0.5;entryY=0;entryDx=0;entryDy=0;" edge="1" parent="1" source="vn-bMymaiI_IPDmEBEAD-11" target="vn-bMymaiI_IPDmEBEAD-4">
          <mxGeometry width="50" height="50" relative="1" as="geometry">
            <mxPoint x="100" y="246" as="sourcePoint" />
            <mxPoint x="200" y="250" as="targetPoint" />
          </mxGeometry>
        </mxCell>
        <mxCell id="vn-bMymaiI_IPDmEBEAD-17" value="" style="endArrow=none;html=1;rounded=0;exitX=0.578;exitY=1;exitDx=0;exitDy=0;exitPerimeter=0;entryX=0.5;entryY=0;entryDx=0;entryDy=0;" edge="1" parent="1" source="vn-bMymaiI_IPDmEBEAD-12" target="vn-bMymaiI_IPDmEBEAD-4">
          <mxGeometry width="50" height="50" relative="1" as="geometry">
            <mxPoint x="137" y="171" as="sourcePoint" />
            <mxPoint x="200" y="250" as="targetPoint" />
          </mxGeometry>
        </mxCell>
        <mxCell id="vn-bMymaiI_IPDmEBEAD-18" value="" style="endArrow=none;html=1;rounded=0;exitX=0.5;exitY=1;exitDx=0;exitDy=0;entryX=0.5;entryY=0;entryDx=0;entryDy=0;" edge="1" parent="1" source="vn-bMymaiI_IPDmEBEAD-8" target="vn-bMymaiI_IPDmEBEAD-4">
          <mxGeometry width="50" height="50" relative="1" as="geometry">
            <mxPoint x="192" y="140" as="sourcePoint" />
            <mxPoint x="210" y="250" as="targetPoint" />
          </mxGeometry>
        </mxCell>
        <mxCell id="vn-bMymaiI_IPDmEBEAD-19" value="" style="endArrow=none;html=1;rounded=0;exitX=0.4;exitY=0.975;exitDx=0;exitDy=0;entryX=0.5;entryY=0;entryDx=0;entryDy=0;exitPerimeter=0;" edge="1" parent="1" source="vn-bMymaiI_IPDmEBEAD-9" target="vn-bMymaiI_IPDmEBEAD-4">
          <mxGeometry width="50" height="50" relative="1" as="geometry">
            <mxPoint x="280" y="90" as="sourcePoint" />
            <mxPoint x="275" y="250" as="targetPoint" />
          </mxGeometry>
        </mxCell>
        <mxCell id="vn-bMymaiI_IPDmEBEAD-21" value="Job_Id" style="ellipse;whiteSpace=wrap;html=1;" vertex="1" parent="1">
          <mxGeometry x="40" y="550" width="80" height="50" as="geometry" />
        </mxCell>
        <mxCell id="vn-bMymaiI_IPDmEBEAD-22" value="Title" style="ellipse;whiteSpace=wrap;html=1;" vertex="1" parent="1">
          <mxGeometry x="100" y="610" width="80" height="50" as="geometry" />
        </mxCell>
        <mxCell id="vn-bMymaiI_IPDmEBEAD-23" value="Requirements" style="ellipse;whiteSpace=wrap;html=1;" vertex="1" parent="1">
          <mxGeometry x="180" y="620" width="100" height="55" as="geometry" />
        </mxCell>
        <mxCell id="vn-bMymaiI_IPDmEBEAD-24" value="Benefits" style="ellipse;whiteSpace=wrap;html=1;" vertex="1" parent="1">
          <mxGeometry x="294" y="620" width="80" height="50" as="geometry" />
        </mxCell>
        <mxCell id="vn-bMymaiI_IPDmEBEAD-25" value="Salary" style="ellipse;whiteSpace=wrap;html=1;" vertex="1" parent="1">
          <mxGeometry x="374" y="570" width="80" height="50" as="geometry" />
        </mxCell>
        <mxCell id="vn-bMymaiI_IPDmEBEAD-26" value="Name" style="ellipse;whiteSpace=wrap;html=1;" vertex="1" parent="1">
          <mxGeometry x="720" y="330" width="80" height="50" as="geometry" />
        </mxCell>
        <mxCell id="vn-bMymaiI_IPDmEBEAD-28" value="Company_id&lt;br&gt;(PK)" style="ellipse;whiteSpace=wrap;html=1;" vertex="1" parent="1">
          <mxGeometry x="610" y="330" width="80" height="50" as="geometry" />
        </mxCell>
        <mxCell id="vn-bMymaiI_IPDmEBEAD-29" value="Industry" style="ellipse;whiteSpace=wrap;html=1;" vertex="1" parent="1">
          <mxGeometry x="747" y="520" width="80" height="50" as="geometry" />
        </mxCell>
        <mxCell id="vn-bMymaiI_IPDmEBEAD-30" value="Website" style="ellipse;whiteSpace=wrap;html=1;" vertex="1" parent="1">
          <mxGeometry x="747" y="460" width="80" height="50" as="geometry" />
        </mxCell>
        <mxCell id="vn-bMymaiI_IPDmEBEAD-31" value="Address" style="ellipse;whiteSpace=wrap;html=1;" vertex="1" parent="1">
          <mxGeometry x="730" y="580" width="80" height="50" as="geometry" />
        </mxCell>
        <mxCell id="vn-bMymaiI_IPDmEBEAD-32" value="Phone" style="ellipse;whiteSpace=wrap;html=1;" vertex="1" parent="1">
          <mxGeometry x="730" y="400" width="80" height="50" as="geometry" />
        </mxCell>
        <mxCell id="vn-bMymaiI_IPDmEBEAD-33" value="Contact_email" style="ellipse;whiteSpace=wrap;html=1;" vertex="1" parent="1">
          <mxGeometry x="680" y="630" width="100" height="55" as="geometry" />
        </mxCell>
        <mxCell id="vn-bMymaiI_IPDmEBEAD-35" value="" style="endArrow=none;html=1;rounded=0;entryX=0.5;entryY=1;entryDx=0;entryDy=0;exitX=1;exitY=0;exitDx=0;exitDy=0;" edge="1" parent="1" source="vn-bMymaiI_IPDmEBEAD-21" target="vn-bMymaiI_IPDmEBEAD-6">
          <mxGeometry width="50" height="50" relative="1" as="geometry">
            <mxPoint x="112" y="175" as="sourcePoint" />
            <mxPoint x="275" y="250" as="targetPoint" />
          </mxGeometry>
        </mxCell>
        <mxCell id="vn-bMymaiI_IPDmEBEAD-36" value="" style="endArrow=none;html=1;rounded=0;entryX=0.5;entryY=1;entryDx=0;entryDy=0;" edge="1" parent="1" source="vn-bMymaiI_IPDmEBEAD-22" target="vn-bMymaiI_IPDmEBEAD-6">
          <mxGeometry width="50" height="50" relative="1" as="geometry">
            <mxPoint x="108" y="537" as="sourcePoint" />
            <mxPoint x="257" y="472" as="targetPoint" />
          </mxGeometry>
        </mxCell>
        <mxCell id="vn-bMymaiI_IPDmEBEAD-37" value="" style="endArrow=none;html=1;rounded=0;entryX=0.5;entryY=1;entryDx=0;entryDy=0;exitX=0.5;exitY=0;exitDx=0;exitDy=0;" edge="1" parent="1" source="vn-bMymaiI_IPDmEBEAD-23" target="vn-bMymaiI_IPDmEBEAD-6">
          <mxGeometry width="50" height="50" relative="1" as="geometry">
            <mxPoint x="150" y="603" as="sourcePoint" />
            <mxPoint x="270" y="470" as="targetPoint" />
          </mxGeometry>
        </mxCell>
        <mxCell id="vn-bMymaiI_IPDmEBEAD-38" value="" style="endArrow=none;html=1;rounded=0;entryX=0.5;entryY=1;entryDx=0;entryDy=0;exitX=0.409;exitY=0.022;exitDx=0;exitDy=0;exitPerimeter=0;" edge="1" parent="1" source="vn-bMymaiI_IPDmEBEAD-24" target="vn-bMymaiI_IPDmEBEAD-6">
          <mxGeometry width="50" height="50" relative="1" as="geometry">
            <mxPoint x="230" y="620" as="sourcePoint" />
            <mxPoint x="270" y="470" as="targetPoint" />
          </mxGeometry>
        </mxCell>
        <mxCell id="vn-bMymaiI_IPDmEBEAD-39" value="" style="endArrow=none;html=1;rounded=0;entryX=0.5;entryY=1;entryDx=0;entryDy=0;" edge="1" parent="1" source="vn-bMymaiI_IPDmEBEAD-25" target="vn-bMymaiI_IPDmEBEAD-6">
          <mxGeometry width="50" height="50" relative="1" as="geometry">
            <mxPoint x="323" y="631" as="sourcePoint" />
            <mxPoint x="270" y="470" as="targetPoint" />
          </mxGeometry>
        </mxCell>
        <mxCell id="vn-bMymaiI_IPDmEBEAD-41" value="" style="fontSize=12;html=1;endArrow=ERoneToMany;startArrow=ERmandOne;rounded=0;exitX=0;exitY=0.5;exitDx=0;exitDy=0;entryX=1;entryY=0.5;entryDx=0;entryDy=0;" edge="1" parent="1" source="vn-bMymaiI_IPDmEBEAD-5" target="vn-bMymaiI_IPDmEBEAD-6">
          <mxGeometry width="100" height="100" relative="1" as="geometry">
            <mxPoint x="555" y="380" as="sourcePoint" />
            <mxPoint x="330" y="450" as="targetPoint" />
          </mxGeometry>
        </mxCell>
        <mxCell id="vn-bMymaiI_IPDmEBEAD-42" value="" style="endArrow=none;html=1;rounded=0;exitX=0.5;exitY=1;exitDx=0;exitDy=0;entryX=1;entryY=0.5;entryDx=0;entryDy=0;" edge="1" parent="1" source="vn-bMymaiI_IPDmEBEAD-28" target="vn-bMymaiI_IPDmEBEAD-5">
          <mxGeometry width="50" height="50" relative="1" as="geometry">
            <mxPoint x="446" y="179" as="sourcePoint" />
            <mxPoint x="275" y="250" as="targetPoint" />
          </mxGeometry>
        </mxCell>
        <mxCell id="vn-bMymaiI_IPDmEBEAD-43" value="" style="endArrow=none;html=1;rounded=0;exitX=0.379;exitY=1.011;exitDx=0;exitDy=0;exitPerimeter=0;entryX=1;entryY=0.5;entryDx=0;entryDy=0;" edge="1" parent="1" source="vn-bMymaiI_IPDmEBEAD-26" target="vn-bMymaiI_IPDmEBEAD-5">
          <mxGeometry width="50" height="50" relative="1" as="geometry">
            <mxPoint x="590" y="210" as="sourcePoint" />
            <mxPoint x="620" y="500" as="targetPoint" />
          </mxGeometry>
        </mxCell>
        <mxCell id="vn-bMymaiI_IPDmEBEAD-44" value="" style="endArrow=none;html=1;rounded=0;exitX=0;exitY=0.5;exitDx=0;exitDy=0;entryX=1;entryY=0.5;entryDx=0;entryDy=0;" edge="1" parent="1" source="vn-bMymaiI_IPDmEBEAD-32" target="vn-bMymaiI_IPDmEBEAD-5">
          <mxGeometry width="50" height="50" relative="1" as="geometry">
            <mxPoint x="680" y="221" as="sourcePoint" />
            <mxPoint x="580" y="310" as="targetPoint" />
          </mxGeometry>
        </mxCell>
        <mxCell id="vn-bMymaiI_IPDmEBEAD-45" value="" style="endArrow=none;html=1;rounded=0;exitX=0;exitY=0.5;exitDx=0;exitDy=0;entryX=1;entryY=0.5;entryDx=0;entryDy=0;" edge="1" parent="1" source="vn-bMymaiI_IPDmEBEAD-30" target="vn-bMymaiI_IPDmEBEAD-5">
          <mxGeometry width="50" height="50" relative="1" as="geometry">
            <mxPoint x="710" y="245" as="sourcePoint" />
            <mxPoint x="580" y="310" as="targetPoint" />
          </mxGeometry>
        </mxCell>
        <mxCell id="vn-bMymaiI_IPDmEBEAD-46" value="" style="endArrow=none;html=1;rounded=0;exitX=0;exitY=0;exitDx=0;exitDy=0;entryX=1;entryY=0.5;entryDx=0;entryDy=0;" edge="1" parent="1" source="vn-bMymaiI_IPDmEBEAD-29" target="vn-bMymaiI_IPDmEBEAD-5">
          <mxGeometry width="50" height="50" relative="1" as="geometry">
            <mxPoint x="740" y="305" as="sourcePoint" />
            <mxPoint x="640" y="340" as="targetPoint" />
          </mxGeometry>
        </mxCell>
        <mxCell id="vn-bMymaiI_IPDmEBEAD-47" value="" style="endArrow=none;html=1;rounded=0;exitX=0.262;exitY=-0.007;exitDx=0;exitDy=0;entryX=1;entryY=0.5;entryDx=0;entryDy=0;exitPerimeter=0;" edge="1" parent="1" source="vn-bMymaiI_IPDmEBEAD-31" target="vn-bMymaiI_IPDmEBEAD-5">
          <mxGeometry width="50" height="50" relative="1" as="geometry">
            <mxPoint x="752" y="357" as="sourcePoint" />
            <mxPoint x="640" y="340" as="targetPoint" />
          </mxGeometry>
        </mxCell>
        <mxCell id="vn-bMymaiI_IPDmEBEAD-48" value="" style="endArrow=none;html=1;rounded=0;exitX=0.039;exitY=0.363;exitDx=0;exitDy=0;entryX=1;entryY=0.5;entryDx=0;entryDy=0;exitPerimeter=0;" edge="1" parent="1" source="vn-bMymaiI_IPDmEBEAD-33" target="vn-bMymaiI_IPDmEBEAD-5">
          <mxGeometry width="50" height="50" relative="1" as="geometry">
            <mxPoint x="731" y="415" as="sourcePoint" />
            <mxPoint x="640" y="340" as="targetPoint" />
          </mxGeometry>
        </mxCell>
        <mxCell id="vn-bMymaiI_IPDmEBEAD-50" value="" style="fontSize=12;html=1;endArrow=ERoneToMany;startArrow=ERoneToMany;rounded=0;entryX=0.5;entryY=1;entryDx=0;entryDy=0;exitX=0.5;exitY=0;exitDx=0;exitDy=0;" edge="1" parent="1" source="vn-bMymaiI_IPDmEBEAD-6" target="vn-bMymaiI_IPDmEBEAD-4">
          <mxGeometry width="100" height="100" relative="1" as="geometry">
            <mxPoint x="400" y="440" as="sourcePoint" />
            <mxPoint x="500" y="340" as="targetPoint" />
          </mxGeometry>
        </mxCell>
      </root>
    </mxGraphModel>
  </diagram>
</mxfile>
